# xmcd
#
# Track frame offsets: 
#        150
#        14806
#        31369
#        50800
#        73257
#        91234
#        108355
#        127985
#        147604
#        163600
#        188553
#        200129
#        211956
#
# Disc length: 3069 seconds
#
# Revision: 0
# Processed by: cddbd v1.5.2PL0 Copyright (c) Steve Scherf et al.
# Submitted via: ExactAudioCopy v0.99pb4
#
DISCID=c70bfb0d
DTITLE=Matt Andersen - Something in Between
DYEAR=2008
DGENRE=Blues
TTITLE0=Come By
TTITLE1=Something in Between
TTITLE2=Working Man Blues
TTITLE3=So Gone Now
TTITLE4=Stay With Me
TTITLE5=Better Man Blues
TTITLE6=Lonesome Road
TTITLE7=Wrote A Song for Everyone
TTITLE8=Broken Man
TTITLE9=Tell Me
TTITLE10=How I Wish
TTITLE11=Baby Come Back Home
TTITLE12=Bold And Beaten
EXTD=
EXTT0=
EXTT1=
EXTT2=
EXTT3=
EXTT4=
EXTT5=
EXTT6=
EXTT7=
EXTT8=
EXTT9=
EXTT10=
EXTT11=
EXTT12=
PLAYORDER=
